<svg width="314" height="287" viewBox="0 0 314 287" fill="none" xmlns="http://www.w3.org/2000/svg">
<path fill-rule="evenodd" clip-rule="evenodd" d="M236.62 136.652C239.331 136.629 242.11 139.325 244.063 140.912C238.98 137.513 230.931 137.635 225.103 136.817C219.432 136.019 213.801 134.822 208.327 133.102C208.207 133.066 196.067 129.091 200.178 126.808C211.55 120.429 225.632 137.217 236.62 136.652ZM157.713 84.3292C159.85 89.5703 169.313 115.236 160.116 117.068C152.797 118.526 146.518 102.907 146.124 97.6878C145.475 88.9976 145.872 80.3261 144.66 71.6475C149.755 75.5534 155.174 78.0376 157.713 84.3292ZM68.3359 243.059C64.8266 247.394 61.2796 251.726 57.4619 255.792C61.4722 250.823 65.2974 245.827 69.8063 241.293L68.3349 243.059L68.3359 243.059ZM304.174 42.902C302.249 40.4198 294.729 43.4523 292.576 43.9392C286.67 45.2717 280.279 46.4563 274.88 44.1197C270.25 42.9558 277.746 34.9254 278.919 31.8534C279.742 29.6996 281.458 24.2392 280.032 22.0434C276.975 17.3392 270.577 22.8528 267.391 25.0257C262.725 28.2093 260.795 30.2705 261.602 24.4272C262.47 18.1462 269.054 7.5668 262.394 2.0028C256.72 -2.73556 247.903 6.26186 244.476 9.87655C238.012 16.6833 235.012 24.3832 233.633 33.5481C233.311 35.6847 230.837 48.3199 228.665 46.0937C224.332 40.525 227.762 32.3492 224.34 26.3482C222.395 22.9379 219.717 21.2473 218.082 17.4101C216.467 13.6218 214.836 6.82984 209.614 6.41855C206.299 6.15878 204.109 8.90136 203.562 11.6357C201.825 18.0475 203.131 23.8206 203.019 30.3138C202.935 35.0651 199.813 38.6374 200.974 43.5259C202.845 50.9772 205.287 58.7916 206.55 66.5513C206.946 68.9834 208.289 80.0562 203.526 77.8913C200.844 76.6725 201.122 66.3114 200.939 64.4905C200.501 60.1397 200.566 55.7976 197.947 52.0289C196.446 49.8684 193.956 49.037 192.797 47.3411C189.374 42.3264 189.605 33.8262 186.779 28.3183C184.241 23.3762 177.521 11.3955 171.62 10.2234C163.541 8.61782 166.58 19.6162 167.107 24.4395C167.692 29.7795 168.59 34.65 168.116 39.8601C167.701 44.4597 168.03 48.1873 169.794 52.6554C173.051 60.9105 177.959 68.0303 182.077 75.5512C182.069 75.5226 182.059 75.4946 182.047 75.4673C184.358 79.8822 186.283 85.3559 186.067 90.4607C185.705 99.0183 182.743 94.6611 180.143 88.8373C176.22 80.0575 173.663 70.669 169.787 61.8904C168.406 58.7633 166.75 55.5894 163.871 53.5508C161.94 52.1834 159.55 52.5151 158.05 51.687C152.833 48.8134 133.623 16.2526 125.557 25.9586C121.201 31.1991 132.015 42.4022 134.295 46.3223C137.937 52.5833 141.801 56.9033 141.432 64.3346C139.314 62.3676 136.403 63.3929 134.467 61.8306C132.167 59.9717 131.522 56.0291 130.445 53.4509C127.483 46.3631 123.998 39.3839 119.365 33.2688C105.226 14.6105 107.605 42.8169 109.005 52.1321C109.274 53.919 109.588 56.2012 109.866 58.2358C110.589 63.572 109.348 64.4385 108.585 69.1554C107.288 77.181 116.748 87.7687 121.638 93.5179C123.145 95.2939 146.395 124.103 136.202 123.862C131.062 123.741 122.398 109.128 119.999 104.642C116.311 97.7445 113.778 83.9625 106.12 80.3844C103.714 79.2606 101.727 80.4423 99.4981 79.5556C94.2905 77.4907 90.7572 69.3379 86.9907 65.5227C79.3248 57.7585 69.9059 58.8374 76.3192 71.434C78.8585 76.4182 80.1181 79.7445 81.6775 85.1693C83.4573 91.3577 89.0451 94.5464 91.617 99.9678C93.7418 104.449 90.4349 102.052 90.6264 107.385C90.7873 111.813 97.6556 116.657 100.888 119.121C105.378 122.542 125.617 134.008 121.65 140.926C118.033 147.233 106.233 137.725 103.079 134.833C95.1865 127.599 92.039 117.833 87.5997 108.464C85.4361 103.897 82.9598 98.3546 79.4189 94.6577C76.3141 91.4189 72.7807 90.9755 68.9335 89.3015C64.4537 87.3536 44.7086 76.9661 45.6188 89.5192C46.2303 97.9531 57.9804 102.037 59.4492 110.088C54.1639 107.733 43.1009 97.027 36.803 102.655C30.7235 108.089 42.7873 119.819 46.4619 124.253C48.717 126.971 64.1561 139.207 63.8961 143.792C63.6238 148.58 58.0833 146.865 54.8822 146.23C49.4071 145.145 0.380186 133.076 0.59816 143.068C0.764715 150.817 19.6169 148.195 22.0526 152.588C22.9482 154.203 20.9989 154.99 20.6539 156.713C19.3915 163.03 21.485 165.554 28.1179 166.246C21.8188 181.342 42.6735 173.332 49.6843 170.924C54.46 169.284 74.7798 161.853 76.1864 172.049C76.6596 175.477 70.9205 180.876 69.9424 184.229C68.0577 190.699 72.8089 194.669 79.0499 192.48C83.344 190.977 87.2445 187.175 89.9994 183.652C91.5832 181.632 94.3809 174.979 97.0223 174.518C96.7591 185.468 103.146 179.807 108.973 175.101C113.331 171.581 124.186 162.012 130.664 165.818C125.592 172.857 118.662 178.462 113.123 185.108C107.06 192.388 100.75 199.187 93.7565 206.068C80.4942 219.114 67.2012 233.335 55.5326 247.756C49.8247 254.809 43.6438 261.53 37.5255 268.228C35.3168 270.642 21.4525 281.478 26.311 285.88C32.8834 291.834 44.2918 269.32 48.9832 266.714C71.2851 241.347 95.0528 217.263 116.67 191.41C115.78 194.326 116.755 202.551 121.164 202.411C120.125 204.808 117.008 208.461 117.732 211.205C119.338 217.276 121.795 211.806 124.072 212.162C127.964 212.772 124.769 219.789 124.049 222.648C120.688 235.974 120.057 250.536 119.191 264.244C118.717 271.765 125.04 292.586 135.719 283.674C141.051 279.227 141.602 268.093 141.941 261.86C142.156 257.928 140.361 247.01 143.089 243.608C147.606 245.996 153.025 256.735 155.925 260.581C162.055 268.716 167.419 273.888 178.07 274.583C203.375 276.236 172.73 247.496 175.784 245.571C177.933 244.217 192.749 256.716 194.709 258.208C199.052 261.517 212.283 269.588 217.14 262.818C221.214 257.139 210.794 247.632 207.702 243.974C205.108 240.906 203.172 236.707 199.926 233.617C197.255 231.075 193.678 229.628 191.033 227.208C188.282 224.692 188.123 221.071 185.057 218.192C181.617 214.957 176.939 212.256 173.152 209.312C166.822 204.392 157.866 197.997 157.124 189.068C171.584 190.863 181.458 206.606 191.331 215.754C196.269 220.329 202.082 226.198 209.234 224.64C212.106 224.013 209.031 223.454 212.876 223.189C213.739 223.129 214.908 223.634 215.743 223.83C221.738 225.241 227.48 227.427 233.424 228.99C237.111 229.962 248.939 234.278 252.245 230.731C258.238 224.297 232.362 208.132 227.788 204.548C224.327 201.84 220.164 199.522 216.897 196.71C213.899 194.128 212.892 190.685 208.86 188.784C203.64 186.323 197.571 185.479 192.129 183.631C184.809 181.146 178.715 177.5 172.622 172.816C170.098 170.875 163.972 166.7 165.297 163.188C167.428 157.548 177.036 164.756 179.758 166.3C187.819 170.876 195.362 178.169 205.33 181.177C215.641 184.293 220.937 194.425 230.431 198.961C233.861 200.598 235.791 200.754 239.407 200.088C243.431 199.351 245.338 198.883 250.065 200.085C254.349 201.176 275.02 207.891 273.447 198.25C272.938 195.122 268.404 193.831 266.106 192.553C261.042 189.733 256.126 186.624 250.994 183.929C247.736 182.218 243.596 181.037 240.929 178.384C238.399 175.866 237.834 173.304 234.195 171.665C229.296 169.457 221.929 169.813 217.639 166.827C213.546 163.981 210.311 159.892 205.625 157.265C201.896 155.176 180.766 147.354 181.344 143.862C182.516 136.763 206.312 150.33 208.144 151.326C219.824 157.673 231.278 166.136 243.267 172.114C247.297 174.122 250.424 173.374 254.137 173.919C259.068 174.643 264.22 178.031 269.228 179.204C273.219 180.139 283.658 182.581 281.621 175.63C280.151 170.607 270.601 166.279 266.608 163.238C262.093 159.804 257.889 156.086 252.999 153.181C251.947 152.555 249.63 151.765 248.858 150.901C246.728 148.503 248.139 144.852 245.576 142.155C248.267 144.742 250.921 146.084 254.573 146.12C255.526 146.132 257.362 145.11 258.559 144.961C262.17 144.509 266.423 145.719 270.039 146.13C275.119 146.699 300.717 145.971 287.531 136.997C281.895 133.161 275.557 130.253 269.28 127.681C264.349 125.658 257.891 124.174 253.735 120.779C249.427 117.259 248.638 115.442 242.377 114.512C235.943 113.556 226.865 113.745 221.806 109.104C211.502 99.645 245.82 105.994 249.469 106.916C256.841 108.777 264.811 110.237 272.348 108.572C280.752 106.716 287.713 102.731 296.552 102.327C300.493 102.15 313.407 102.554 313.181 96.2214C312.96 89.9857 298.517 89.5713 294.684 88.803C290.725 88.0099 286.225 87.7396 282.42 86.5801C278.967 85.5256 276.331 83.2979 272.965 81.9988C263.426 78.3113 255.32 83.0152 245.808 82.5736C240.786 82.3401 238.392 80.3648 243.641 76.7781C246.473 74.839 251.022 74.6582 254.36 73.7195C259.383 72.3091 264.327 70.5105 269.285 68.8814C275.975 66.68 313.541 54.9001 304.174 42.902Z" fill="#89B99A"/>
</svg>
